<svg xmlns="http://www.w3.org/2000/svg" width="1600" height="1000" viewBox="0 0 1600 1000">
  <rect width="1600" height="1000" fill="#fbfff8"/>
  <g fill="none" stroke="#1f7a3f" stroke-width="7" stroke-linecap="round" stroke-linejoin="round" opacity="0.55">
    <circle cx="260" cy="250" r="62"/>
    <path d="M160 410c30-82 170-82 200 0"/>
    <path d="M210 210h100M230 180h60"/>
    <rect x="560" y="165" width="230" height="170" rx="28"/>
    <path d="M610 335v70M740 335v70M600 230h150"/>
    <path d="M555 165l120-80 120 80"/>
    <rect x="1040" y="170" width="260" height="170" rx="28"/>
    <path d="M1085 245h170M1085 295h110"/>
    <path d="M1070 170l40-70h150l40 70"/>
    <circle cx="340" cy="690" r="58"/>
    <circle cx="475" cy="690" r="58"/>
    <circle cx="610" cy="690" r="58"/>
    <path d="M245 835c50-110 230-110 280 0"/>
    <path d="M515 835c50-110 230-110 280 0"/>
    <rect x="970" y="620" width="280" height="190" rx="35"/>
    <path d="M1015 690h190M1015 745h130"/>
    <path d="M1000 620l55-90h150l55 90"/>
  </g>
  <g fill="#F2B84B" opacity="0.45">
    <circle cx="870" cy="470" r="34"/>
    <circle cx="930" cy="515" r="24"/>
    <circle cx="875" cy="570" r="28"/>
    <circle cx="770" cy="520" r="20"/>
    <circle cx="1320" cy="470" r="38"/>
    <circle cx="1390" cy="525" r="26"/>
    <circle cx="1305" cy="585" r="30"/>
  </g>
  <g fill="none" stroke="#C95F3D" stroke-width="6" stroke-linecap="round" opacity="0.45">
    <path d="M820 445c30-60 95-60 125 0"/>
    <path d="M1265 445c35-70 115-70 150 0"/>
    <path d="M210 510c95 45 210 45 305 0"/>
    <path d="M985 860c115 45 245 45 360 0"/>
  </g>
</svg>
